<svg width="580" height="400" xmlns="http://www.w3.org/2000/svg" stroke="null" style="vector-effect: non-scaling-stroke;">
 <!-- Created with Method Draw - http://github.com/duopixel/Method-Draw/ -->

 <g stroke="null">
  <title stroke="null">background</title>
  <rect stroke="null" fill="#fff" id="canvas_background" height="402" width="582" y="-1" x="-1"/>
  <g stroke="null" style="vector-effect: non-scaling-stroke;" display="none" overflow="visible" y="0" x="0" height="100%" width="100%" id="canvasGrid">
   <rect fill="url(#gridpattern)" stroke-width="0" y="0" x="0" height="100%" width="100%"/>
  </g>
 </g>
 <g stroke="null">
  <title stroke="null">Layer 1</title>

  <metadata stroke="null" style="vector-effect: non-scaling-stroke;" transform="matrix(0.2015415389986721,0,0,0.2015415389986721,0,0) " id="svg_21">image/svg+xml</metadata>
  <g stroke="null" transform="matrix(1.4945271918852314,0,0,1.1309249489834987,-1343.090482040107,-368.93686258510866) " id="svg_13">
   <rect stroke="null" y="809.300552" x="1049.171275" height="245.71428" width="31.428572" id="svg_20"/>
   <path stroke="#e7c9a1" fill="#d3bc5f" fill-rule="evenodd" stroke-width="0.264583" stroke-opacity="0.889447" d="m1051.56727,489.921183c0.559682,5.641954 -7.024466,3.886851 -9.001665,1.360378c-5.358078,-6.846575 0.396359,-16.748387 7.141228,-20.115008c12.064974,-6.02208 25.11177,2.662792 28.865431,14.673478c5.508637,17.626168 -6.761395,36.266427 -23.284093,41.590398c-22.022167,7.09602 -43.723686,-8.518692 -48.729214,-30.707331c-6.298944,-27.92215 13.116013,-56.105034 39.426976,-63.065791c31.866104,-8.430412 62.472011,14.354305 68.592983,46.741205c7.213354,38.166831 -19.461249,76.020817 -55.569862,84.541166c-41.688814,9.837077 -81.26554,-20.181636 -88.456749,-62.775061c-8.171104,-48.397348 25.802482,-95.967526 71.712735,-106.016566c51.504362,-11.273494 100.079683,26.005229 108.320525,78.808925c9.148905,58.622105 -32.141778,115.929717 -87.855618,127.491959" id="svg_19"/>
   <path stroke="null" stroke-width="0.264583" d="m991.616562,448.544852c-0.04169,5.08101 -0.33117,10.14 -0.74453,15.20348c-0.5167,5.96858 -0.74436,11.9561 -0.83697,17.94462c-0.05419,3.83403 -0.03064,7.66813 -0.0055,11.5022c0.04119,2.80044 0.01974,5.60114 0.01119,8.40169c-0.01524,3.40902 -0.01889,6.81793 -0.01681,10.22698c0.0094,2.65735 0.03722,5.31453 0.06261,7.97176c0.00012,2.00758 -0.0019,4.0151 0.0068,6.02268c0.05312,5.94574 0.77709,2.23158 -9.97686,7.16233c0,0 10.01438,-5.10258 10.01438,-5.10258l0,0c-11.64101,6.52531 -9.94258,9.05306 -9.97685,3.00459c0.0087,-2.00989 0.0067,-4.01974 0.0068,-6.02964c0.0254,-2.67848 0.0532,-5.35691 0.06263,-8.03551c0.0019,-3.40248 -0.0018,-6.80482 -0.02049,-10.20725c-0.01206,-2.80168 -0.04065,-5.60349 -0.0057,-8.40516c0.0245,-3.87065 0.0571,-7.7419 0.16272,-11.61128c0.19207,-6.02406 0.4512,-12.04562 0.92392,-18.05525c0.38223,-4.96586 0.70942,-9.9368 0.37063,-14.91777c0,0 9.962,-5.07589 9.962,-5.07589l0.00003,0z" id="svg_18"/>
   <path stroke="null" stroke-width="0.264583" d="m994.760842,452.322192c0.83558,4.96289 2.162,9.82066 3.14899,14.75168c1.06953,6.34586 2.6256,12.58347 4.49018,18.73772c1.731,5.47024 3.71615,10.8588 5.89283,16.16651c1.62741,3.93074 3.43254,7.78872 5.37702,11.57244c1.06558,2.23189 2.38455,4.33356 3.71545,6.41485c1.50418,2.38289 3.33809,4.47477 5.33596,6.44525c0.77329,0.62984 2.93354,3.23836 3.92477,3.2415c0.15741,0.00053 0.26716,-0.16652 0.40074,-0.24979c-19.07204,9.95387 -9.67009,7.20979 -8.33343,3.66421c0.50708,-1.34505 0.73393,-2.76874 0.97803,-4.177c0.47202,-3.55935 0.51472,-7.15272 0.79647,-10.72918c0.32924,-3.69499 0.45447,-7.40237 0.53419,-11.10967c0.09253,-3.45956 -0.07258,-6.92386 0.08569,-10.3808c0.26961,-2.94137 0.47447,-5.88422 0.59085,-8.83564c0.09452,-3.13217 0.07352,-6.26604 0.09068,-9.39917c0.16672,-3.08722 0.44059,-6.16608 0.59211,-9.25459c0.02222,-2.76682 0.28576,-5.51542 0.56107,-8.26549c0.2895,-1.87906 0.67401,-3.73739 0.87833,-5.62935c0.06843,-1.58313 0.20031,-3.14371 0.47021,-4.70532c0.26947,-1.50611 0.31807,-3.03389 0.59383,-4.53841c0.34365,-1.66459 0.81902,-3.28842 1.0879,-4.96949c0.16914,-1.62086 0.56798,-3.20235 0.79969,-4.81394c0.12024,-1.42844 0.21363,-2.83898 0.5171,-4.24213c0.24385,-1.28557 0.35667,-2.5732 0.7613,-3.82261c0.0817,-0.17219 0.1634,-0.34439 0.2451,-0.51658c0,0 10.23145,-4.62836 10.23145,-4.62836l0,0c-0.0862,0.16312 -0.17236,0.32624 -0.25855,0.48936c-0.7181,1.07325 -0.67213,2.36341 -0.88246,3.59872c-0.29379,1.3895 -0.59604,2.73737 -0.58026,4.17289c-0.19406,1.63037 -0.60479,3.21422 -0.80946,4.83856c-0.22994,1.69941 -0.62146,3.35233 -1.04575,5.00726c-0.31209,1.49723 -0.41245,2.99866 -0.60477,4.51584c-0.26588,1.54527 -0.53416,3.06471 -0.5185,4.64189c-0.18025,1.9063 -0.49726,3.79322 -0.939,5.65715c-0.2698,2.74284 -0.70324,5.4706 -0.62673,8.23703c-0.15358,3.07723 -0.426,6.14536 -0.63907,9.2186c0.0098,3.14527 -0.02088,6.29059 -0.08738,9.43517c-0.07067,2.95767 -0.20967,5.91459 -0.56025,8.85414c-0.25219,3.45271 -0.07182,6.92168 -0.18811,10.38054c-0.04596,3.72288 -0.12905,7.44794 -0.47306,11.15751c-0.29985,3.59185 -0.36475,7.19438 -0.72586,10.78083c-0.19361,1.4613 -0.43287,2.87728 -0.78092,4.30981c-0.01535,0.0631 -0.42357,1.82558 -0.58535,1.92691c-3.32072,2.07991 -6.83727,3.82944 -10.2559,5.74416c-1.94647,-0.67631 -3.23935,-2.44315 -4.69287,-3.81811c-2.00843,-2.05773 -3.89345,-4.21337 -5.45369,-6.64032c-1.38798,-2.0953 -2.74207,-4.23726 -3.73841,-6.55026c-1.8523,-3.86534 -3.59104,-7.78743 -5.22296,-11.75077c-2.17565,-5.34775 -4.14714,-10.78182 -5.86828,-16.29332c-1.89314,-6.17777 -3.40427,-12.46241 -4.53782,-18.82495c-1.03488,-4.88368 -2.29734,-9.71717 -3.53234,-14.5537c0,0 9.84125,-5.26158 9.84125,-5.26158l-0.00001,0z" id="svg_17"/>
   <path stroke="null" stroke-width="0.264583" d="m1051.964462,443.363542c-1.04904,3.74702 -1.49205,7.6039 -1.96949,11.45285c-0.65441,5.1205 -0.86631,10.2772 -1.00321,15.43248c-0.0754,4.44519 -0.0671,8.89119 -0.0239,13.33663c0.0388,2.79137 0.0437,5.58281 0.0655,8.3743c0.001,2.34682 -0.002,4.69361 0.0116,7.04041c0.0126,2.06064 -0.00026,4.12129 0.007,6.18196c0.009,1.71357 0.0158,3.42714 0.0193,5.14073c-0.005,1.50025 -0.0541,2.99127 0.17475,4.47706c0.29215,1.51409 0.43914,3.04701 0.52263,4.5849c0.0683,1.05061 -0.21378,1.48085 0.8267,1.91177c1.26551,0.52411 0.32928,0.22777 1.89341,0.61354c2.91866,0.62146 5.86092,1.03493 8.83443,1.27442c2.07566,0.15074 4.15745,0.16596 6.23751,0.17036c1.73384,-0.13912 3.41809,0.27517 5.1248,0.50168c1.504,0.18262 3.02013,0.21022 4.53319,0.22914c1.50754,0.0114 3.01515,0.007 4.52271,0.005c1.51166,-0.002 3.02333,-0.003 4.53499,-0.003c1.51196,-0.00027 3.02391,-0.00027 4.53587,-0.00027c1.50768,-0.0612 2.98675,-0.44332 4.49492,-0.60231c1.59575,-0.0624 3.15697,-0.16796 4.73127,-0.42733c1.74116,-0.17857 3.3203,-0.963 4.97761,-1.46138c0.87208,-0.45413 0.43509,-0.24354 1.30996,-0.63382c0,0 -8.78247,6.95321 -8.78247,6.95321l0,0c-0.87694,0.37837 -0.42373,0.20094 -1.3611,0.52852c-1.65814,0.56933 -3.31827,1.14388 -5.07743,1.31158c-1.58501,0.21988 -3.18265,0.22213 -4.77066,0.4167c-1.52033,0.21227 -3.03145,0.56782 -4.57653,0.49327c-1.51188,0.00003 -3.02376,0.00004 -4.53564,0.00053c-1.51154,0.0008 -3.02307,0.002 -4.53461,0.004c-1.51211,0.001 -3.0244,0.006 -4.53631,-0.0232c-1.53972,-0.0408 -3.08108,-0.11058 -4.6058,-0.34387c-1.66476,-0.25053 -3.32171,-0.49894 -5.01326,-0.39672c-2.07696,-0.0212 -4.15412,-0.0812 -6.22135,-0.30048c-3.01566,-0.31848 -6.01613,-0.75118 -8.97645,-1.41958c-2.06975,-0.6425 -3.61168,-1.21463 -3.51336,-3.67248c-0.0618,-1.49836 -0.17072,-2.99607 -0.46097,-4.47032c-0.2723,-1.54329 -0.31281,-3.0744 -0.25575,-4.64185c0.004,-1.72017 0.0105,-3.44033 0.0194,-5.16048c0.007,-2.06303 -0.005,-4.12605 0.007,-6.18906c0.013,-2.34974 0.01,-4.69949 0.008,-7.04926c0.017,-2.81074 0.0129,-5.62145 0.0464,-8.43212c0.0411,-4.47727 0.0518,-8.95507 0.15181,-13.43159c0.11417,-5.17798 0.29476,-10.36225 0.93158,-15.50694c0.41126,-3.82427 0.78927,-7.65307 1.62892,-11.41314c0,0 10.06712,-4.85518 10.06712,-4.85518l-0.00009,-0.00066z" id="svg_16"/>
   <path stroke="null" stroke-width="0.264583" d="m1051.567272,489.921002c2.7511,-0.24725 5.50716,-0.41274 8.26773,-0.50014c2.44178,0.0736 4.83592,-0.1988 7.25128,-0.49034c2.00996,-0.23573 4.03503,-0.30657 6.05682,-0.35317c1.85791,-0.0278 3.71619,-0.0143 5.57424,-0.012c1.95203,0.0114 3.9041,0.003 5.85613,-0.002c1.60585,0.0282 2.90536,0.0752 4.46738,-0.31494c1.36895,-0.22525 2.65581,-0.70642 4.02536,-0.94685c0.2487,-0.0317 0.49741,-0.0634 0.74612,-0.0951c0,0 -8.9519,6.72248 -8.9519,6.72248l0,0c-0.23851,0.0459 -0.47702,0.0918 -0.71553,0.1377c-1.34746,0.32495 -2.67123,0.74104 -4.04604,0.94752c-1.51003,0.22093 -3.04083,0.0826 -4.56214,0.11413c-1.94624,-0.007 -3.89251,-0.0185 -5.83876,-0.0106c-1.85641,0.00026 -3.71303,0.002 -5.56906,0.0445c-1.99398,0.0567 -3.98771,0.15681 -5.96711,0.41738c-2.41028,0.28951 -4.82364,0.35764 -7.25054,0.37446c-2.78004,0.11349 -5.56372,0.26362 -8.32013,0.66081c0,0 8.97615,-6.69366 8.97615,-6.69366l0,-0.00018z" id="svg_15"/>
   <path stroke="null" stroke-width="0.264583" d="m1056.817352,445.460802c2.41659,0.05532 4.83448,0.04098 7.25156,0.03139c1.6626,0.19814 3.30571,0.5032 4.97597,0.63747c1.76217,0.48605 3.58857,0.64243 5.40545,0.76353c1.66827,0.09335 3.33967,0.09442 5.00995,0.09553c1.72704,-0.09206 3.41329,0.32403 5.12275,0.51353c1.7876,0.17915 3.58459,0.21634 5.37967,0.23547c1.546,0.0095 3.09204,0.004 4.63806,0.0016c1.50971,-0.0024 3.01942,-0.003 4.52914,-0.0034c0,0 -9.05435,6.57889 -9.05435,6.57889l0,0c-1.50945,0.00079 -3.01891,0.0021 -4.52836,0.0038c-1.54677,0.00079 -3.09371,0.0039 -4.64027,-0.02638c-1.81056,-0.04598 -3.62144,-0.12754 -5.42119,-0.34094c-1.68902,-0.20772 -3.36949,-0.48973 -5.07927,-0.39108c-1.67808,-0.01469 -3.35747,-0.04223 -5.03062,-0.18315c-1.83033,-0.16824 -3.64354,-0.43379 -5.45256,-0.75467c-1.61664,-0.1847 -3.21393,-0.52723 -4.84179,-0.60043c-2.44591,-0.0098 -4.89253,-0.02289 -7.33797,0.03139c0,0 9.07383,-6.59253 9.07383,-6.59253l0,-0.00002z" id="svg_14"/>
  </g>
 </g>
</svg>